<svg id="regular" viewBox="0 0 24 24" width="16px" height="16px" xmlns="http://www.w3.org/2000/svg"><path d="m6.504 19.337c0-.414-.336-.75-.75-.75s-.75.336-.75.75c0 4.808 8.843 6.212 12.17 2.834 1.888-1.918 1.844-4.77 1.826-5.988l-.003-15.434c0-.414-.336-.75-.75-.75s-.75.336-.75.75v2.538c-1.283-1.998-3.267-3.288-5.497-3.288-3.857 0-6.996 3.848-6.996 8.577s3.139 8.576 6.996 8.576c2.23 0 4.214-1.29 5.497-3.288.028 2.927.245 5.593-1.392 7.254-2.394 2.431-9.519 1.602-9.601-1.781zm5.496-3.685c-3.031 0-5.496-3.175-5.496-7.077s2.465-7.076 5.496-7.076 5.497 3.175 5.497 7.077-2.466 7.076-5.497 7.076z"/></svg>